<?xml version="1.0" encoding="UTF-8"?>
<svg xmlns="http://www.w3.org/2000/svg" xmlns:xlink="http://www.w3.org/1999/xlink" width="300px" height="300px" viewBox="0 0 300 96" version="1.1">
<g id="surface1">
<path style=" stroke:none;fill-rule:nonzero;fill:rgb(8.235294%,8.235294%,8.235294%);fill-opacity:1;" d="M 31.613281 69.050781 C 27.65625 69.050781 23.847656 68.59375 20.179688 67.679688 C 16.707031 66.847656 13.386719 65.484375 10.335938 63.636719 C 7.4375 61.851562 5.144531 59.621094 3.460938 56.945312 C 1.769531 54.273438 0.929688 51.148438 0.929688 47.585938 L 0.929688 46.460938 L 20.179688 46.460938 L 20.179688 47.335938 C 20.179688 49.738281 21.25 51.503906 23.394531 52.621094 C 25.542969 53.742188 28.449219 54.300781 32.113281 54.300781 C 33.976562 54.308594 35.832031 54.109375 37.648438 53.710938 C 39.417969 53.320312 40.875 52.675781 42.019531 51.78125 C 43.167969 50.890625 43.742188 49.761719 43.742188 48.390625 C 43.742188 46.195312 42.519531 44.636719 40.085938 43.722656 C 37.644531 42.8125 33.738281 41.898438 28.363281 40.984375 C 25.242188 40.46875 22.152344 39.761719 19.113281 38.871094 C 16.105469 38.007812 13.210938 36.785156 10.492188 35.234375 C 7.96875 33.8125 5.808594 31.828125 4.179688 29.441406 C 2.597656 27.101562 1.804688 24.25 1.804688 20.890625 C 1.804688 16.410156 3.167969 12.632812 5.894531 9.5625 C 8.625 6.496094 12.261719 4.171875 16.804688 2.59375 C 21.347656 1.019531 26.347656 0.230469 31.804688 0.230469 C 37.011719 0.230469 41.867188 1.089844 46.367188 2.8125 C 50.867188 4.535156 54.511719 7.003906 57.304688 10.21875 C 60.097656 13.433594 61.488281 17.300781 61.488281 21.824219 L 61.488281 22.695312 L 42.429688 22.695312 L 42.429688 21.949219 C 42.429688 20.289062 41.894531 18.941406 40.835938 17.902344 C 39.695312 16.820312 38.3125 16.019531 36.804688 15.570312 C 35.167969 15.050781 33.457031 14.785156 31.738281 14.792969 C 30.15625 14.792969 28.523438 14.96875 26.835938 15.320312 C 25.144531 15.671875 23.722656 16.253906 22.554688 17.0625 C 21.386719 17.871094 20.804688 19 20.804688 20.457031 C 20.804688 21.863281 21.429688 23.015625 22.679688 23.902344 C 23.929688 24.800781 25.679688 25.523438 27.929688 26.082031 C 30.179688 26.644531 32.785156 27.171875 35.742188 27.671875 C 38.53125 28.128906 41.480469 28.761719 44.585938 29.566406 C 47.6875 30.378906 50.605469 31.519531 53.335938 32.992188 C 55.96875 34.378906 58.234375 36.359375 59.960938 38.777344 C 61.644531 41.164062 62.492188 44.179688 62.492188 47.828125 C 62.492188 51.605469 61.617188 54.839844 59.867188 57.535156 C 58.078125 60.269531 55.640625 62.523438 52.769531 64.101562 C 49.664062 65.832031 46.316406 67.089844 42.835938 67.835938 C 39.1875 68.644531 35.449219 69.050781 31.613281 69.050781 Z M 119.570312 67.554688 L 119.570312 31.714844 C 119.570312 28.976562 119.214844 26.476562 118.507812 24.21875 C 117.859375 22.042969 116.523438 20.132812 114.695312 18.773438 C 112.863281 17.40625 110.21875 16.722656 106.757812 16.722656 C 103.757812 16.722656 101.164062 17.40625 98.980469 18.773438 C 96.777344 20.15625 95.027344 22.144531 93.941406 24.496094 C 92.777344 26.945312 92.191406 29.765625 92.191406 32.960938 L 86.820312 29.101562 C 86.820312 23.378906 88.070312 18.355469 90.570312 14.042969 C 92.984375 9.816406 96.492188 6.3125 100.730469 3.902344 C 104.992188 1.457031 109.734375 0.234375 114.9375 0.234375 C 120.402344 0.234375 124.890625 1.324219 128.410156 3.503906 C 131.933594 5.679688 134.558594 8.707031 136.285156 12.585938 C 138.015625 16.460938 138.878906 20.996094 138.878906 26.183594 L 138.878906 67.554688 Z M 72.820312 67.554688 L 72.820312 1.476562 L 92.195312 1.476562 L 92.195312 67.554688 Z M 174.210938 68.925781 C 169.375 68.925781 165.074219 68.15625 161.304688 66.621094 C 157.53125 65.089844 154.585938 62.871094 152.460938 59.964844 C 150.335938 57.058594 149.269531 53.535156 149.269531 49.386719 C 149.269531 44.699219 150.5625 40.882812 153.144531 37.9375 C 155.730469 34.992188 159.15625 32.742188 163.429688 31.1875 C 167.917969 29.582031 172.589844 28.546875 177.335938 28.105469 C 184.625 27.402344 189.65625 26.753906 192.429688 26.179688 C 195.199219 25.597656 196.585938 24.578125 196.585938 23.128906 L 196.585938 23.003906 C 196.585938 20.558594 195.40625 18.632812 193.054688 17.21875 C 190.695312 15.808594 187.417969 15.105469 183.210938 15.105469 C 178.75 15.105469 175.347656 15.902344 172.992188 17.496094 C 170.636719 19.097656 169.457031 21.53125 169.457031 24.808594 L 150.394531 24.808594 C 150.394531 19.5 151.84375 15.019531 154.738281 11.367188 C 157.632812 7.71875 161.5625 4.949219 166.519531 3.0625 C 171.480469 1.175781 177.082031 0.230469 183.332031 0.230469 C 189.164062 0.230469 194.5625 1.113281 199.519531 2.875 C 204.480469 4.640625 208.46875 7.285156 211.488281 10.808594 C 214.507812 14.335938 216.019531 18.816406 216.019531 24.25 L 216.019531 52.808594 C 216.019531 54.511719 216.070312 56.136719 216.175781 57.691406 C 216.28125 59.25 216.519531 60.667969 216.894531 61.957031 C 217.3125 63.40625 217.832031 64.613281 218.457031 65.5625 C 219.082031 66.515625 219.601562 67.183594 220.019531 67.554688 L 200.957031 67.554688 C 200.457031 66.992188 200.007812 66.386719 199.613281 65.75 C 198.972656 64.761719 198.457031 63.695312 198.078125 62.578125 C 197.585938 61.148438 197.222656 59.683594 196.988281 58.191406 C 196.742188 56.46875 196.625 54.734375 196.644531 52.996094 L 200.644531 55.734375 C 199.480469 58.472656 197.59375 60.824219 194.988281 62.792969 C 192.382812 64.765625 189.300781 66.277344 185.738281 67.339844 C 182.175781 68.394531 178.332031 68.925781 174.203125 68.925781 Z M 179.394531 54.488281 C 182.324219 54.511719 185.222656 53.949219 187.929688 52.839844 C 190.542969 51.765625 192.785156 49.960938 194.394531 47.644531 C 196.0625 45.28125 196.894531 42.191406 196.894531 38.371094 L 196.894531 31.714844 L 201.707031 36.382812 C 198.957031 37.378906 195.777344 38.199219 192.175781 38.835938 C 188.566406 39.484375 184.980469 39.988281 181.394531 40.367188 C 177.144531 40.777344 173.964844 41.492188 171.863281 42.511719 C 169.757812 43.527344 168.707031 45.238281 168.707031 47.644531 C 168.707031 49.925781 169.601562 51.636719 171.394531 52.777344 C 173.1875 53.917969 175.855469 54.488281 179.394531 54.488281 Z M 228.476562 94.75 L 228.476562 1.476562 L 247.910156 1.476562 L 247.910156 94.75 Z M 268.410156 69.050781 C 263.289062 69.085938 258.269531 67.625 253.976562 64.851562 C 249.601562 62.046875 246.101562 58.273438 243.476562 53.523438 C 240.851562 48.773438 239.535156 43.433594 239.535156 37.5 L 239.535156 36.503906 L 247.910156 36.320312 L 247.910156 37.066406 C 247.910156 40.136719 248.660156 42.824219 250.160156 45.125 C 251.660156 47.425781 253.601562 49.199219 255.976562 50.441406 C 258.351562 51.6875 260.828125 52.3125 263.410156 52.3125 C 267.660156 52.3125 271.359375 50.847656 274.503906 47.925781 C 277.648438 45 279.226562 40.425781 279.226562 34.203125 C 279.226562 27.980469 277.660156 23.449219 274.535156 20.609375 C 271.410156 17.765625 267.703125 16.34375 263.410156 16.34375 C 260.828125 16.34375 258.351562 16.960938 255.976562 18.183594 C 253.621094 19.386719 251.617188 21.175781 250.160156 23.378906 C 248.660156 25.617188 247.910156 28.296875 247.910156 31.402344 L 239.535156 30.90625 C 239.535156 24.929688 240.851562 19.65625 243.476562 15.070312 C 246.101562 10.484375 249.601562 6.871094 253.976562 4.214844 C 258.316406 1.566406 263.320312 0.1875 268.410156 0.230469 C 273.785156 0.230469 278.808594 1.546875 283.476562 4.179688 C 288.140625 6.816406 291.921875 10.664062 294.816406 15.726562 C 297.710938 20.785156 299.160156 26.945312 299.160156 34.203125 C 299.160156 41.796875 297.746094 48.183594 294.910156 53.367188 C 292.078125 58.554688 288.328125 62.464844 283.660156 65.097656 C 279.015625 67.726562 273.753906 69.089844 268.410156 69.050781 Z M 268.410156 69.050781 "/>
</g>
</svg>
